<svg width="172" height="94" viewBox="0 0 172 94" fill="none" xmlns="http://www.w3.org/2000/svg">
<path d="M56.7199 85.9348C54.829 85.9348 53.291 84.4023 53.291 82.506C53.291 80.6096 54.8235 79.0771 56.7199 79.0771C58.6162 79.0771 60.1487 80.6096 60.1487 82.506C60.1487 84.4023 58.6162 85.9348 56.7199 85.9348ZM56.7199 93.4761C58.6107 93.4761 60.1487 91.9436 60.1487 90.0473C60.1487 88.1509 58.6162 86.6184 56.7199 86.6184C54.8235 86.6184 53.291 88.1509 53.291 90.0473C53.291 91.9436 54.8235 93.4761 56.7199 93.4761Z" fill="#F69C06"/>
<path d="M49.724 93.1784C49.4539 92.8256 49.25 92.3129 49.1452 91.5687L48.7097 88.9447C48.5223 87.6878 47.8828 86.9216 46.874 86.7341V86.6956C48.3404 86.4254 49.3106 85.1245 49.3106 83.3108C49.3106 80.6868 47.949 79.3858 45.2202 79.3858H41.5653V93.1784H43.8365V87.5831H44.7682C45.8211 87.5831 46.2566 88.0186 46.4385 89.1101L46.8299 91.69C46.9346 92.3295 47.078 92.8477 47.304 93.1784H49.7185H49.724ZM46.9787 83.5148C46.9787 85.1686 46.3613 85.786 44.9336 85.786H43.8365V81.2656H44.9336C46.3558 81.2656 46.9787 81.883 46.9787 83.5148ZM35.9314 87.109H39.2996V85.2292H35.9314V81.3262H39.9777V79.3858H33.6602V93.1784H39.9777V91.238H35.9314V87.109ZM32.3813 81.3262V79.3858H24.5974V81.3262H27.3427V93.1784H29.636V81.3262H32.3813ZM23.9359 81.3262V79.3858H16.152V81.3262H18.8973V93.1784H21.1906V81.3262H23.9359ZM11.13 87.109H14.4983V85.2292H11.13V81.3262H15.1763V79.3858H8.85882V93.1784H15.1763V91.238H11.13V87.109ZM3.24143 87.087C4.62511 87.087 5.22599 87.7264 5.22599 89.2148C5.22599 90.7033 4.62511 91.3427 3.24143 91.3427H2.18852V87.087H3.24143ZM3.054 81.2215C4.39358 81.2215 4.93382 81.7783 4.93382 83.2667C4.93382 84.7551 4.37704 85.3725 3.054 85.3725H2.18852V81.2215H3.054ZM7.12234 82.958C7.12234 80.6427 5.73866 79.3858 3.24143 79.3858H0V93.1784H3.46745C6.02532 93.1784 7.45309 91.8389 7.45309 89.4629C7.45309 87.6437 6.56556 86.4475 5.01651 86.1774V86.1388C6.33954 85.8301 7.12234 84.6724 7.12234 82.958ZM70.5177 79.3858L68.5552 86.2215H68.4725L66.5541 79.3858H63.8474V93.1784H66.0139V85.8907L65.9533 83.1013H66.036L67.789 89.6448H69.1506L70.9036 83.1013H70.9863L70.9422 85.8907V93.1784H73.0921V79.3858H70.5122H70.5177ZM74.9995 79.3858V93.1784H81.317V91.238H77.2707V87.109H80.6389V85.2292H77.2707V81.3262H81.317V79.3858H74.9995ZM88.6929 79.3858V88.0407H88.6102L85.1814 79.3858H82.9102V93.1784H85.016V84.0495H85.0987L88.7977 93.1784H90.7822V79.3858H88.6984H88.6929ZM92.0777 79.3858V81.3262H94.823V93.1784H97.1162V81.3262H99.8615V79.3858H92.0777ZM104.779 81.9657H104.839L105.997 87.9139H103.621L104.779 81.9657ZM103.417 79.3858L100.44 93.1784H102.59L103.274 89.6669H106.35L107.033 93.1784H109.266L106.295 79.3858H103.423H103.417ZM110.457 79.3858V93.1784H116.609V91.238H112.745V79.3858H110.451H110.457ZM126.576 79.3858V85.2292H123.086V79.3858H120.793V93.1784H123.086V87.1697H126.576V93.1784H128.869V79.3858H126.576ZM130.765 79.3858V93.1784H137.083V91.238H133.037V87.109H136.405V85.2292H133.037V81.3262H137.083V79.3858H130.765ZM142.309 81.9657H142.37L143.527 87.9139H141.151L142.309 81.9657ZM140.947 79.3858L137.976 93.1784H140.126L140.809 89.6669H143.886L144.569 93.1784H146.796L143.825 79.3858H140.953H140.947ZM147.987 79.3858V93.1784H154.139V91.238H150.28V79.3858H147.987ZM154.861 79.3858V81.3262H157.606V93.1784H159.9V81.3262H162.645V79.3858H154.861ZM169.707 79.3858V85.2292H166.217V79.3858H163.924V93.1784H166.217V87.1697H169.707V93.1784H172V79.3858H169.707Z" fill="#181816"/>
<path d="M55.1539 38.1016C55.1154 36.8117 55.1043 35.5052 55.0933 34.2373C55.0713 31.8448 61.929 31.6298 61.7195 29.2042C61.5651 27.4016 60.8044 25.7588 59.9555 24.1932C59.2553 22.8977 58.649 21.1778 57.4251 20.2848C56.6148 19.6949 55.5729 19.287 54.6909 18.8074C52.563 17.6442 50.617 17.0819 49.4539 14.7831C48.8695 13.642 48.2742 12.4568 47.7835 11.244C47.3811 10.2517 47.1055 9.19332 46.8409 8.16796L46.6975 7.60567C46.5432 7.03236 46.4109 6.44251 46.2841 5.86919C46.1573 5.30139 46.025 4.71154 45.8762 4.14373C45.6612 3.33889 45.3414 2.78762 44.8674 2.40725C44.3547 1.9938 43.6711 2.04893 43.2742 2.53404C43.1584 2.67186 43.0592 2.83172 42.9765 2.96954C42.4142 3.89015 42.2874 4.93204 42.1882 6.09521C42.0835 7.34107 42.0283 8.60346 41.9787 9.7115C41.9622 10.147 41.9457 10.566 41.9236 10.9518C41.9236 11.3102 41.9236 11.6464 41.9236 11.9607C41.9236 12.749 41.9291 13.427 41.9071 14.0941C41.9015 14.3421 41.7472 14.6894 41.5157 14.8438C41.4275 14.9044 41.3282 14.932 41.2235 14.932C40.9313 14.932 40.6998 14.6949 40.6171 14.5957C40.4131 14.3476 40.2422 14.072 40.0989 13.8294C39.7241 13.1955 39.3492 12.5615 38.9743 11.9276C38.5774 11.255 38.1805 10.5825 37.7836 9.90996C37.5631 9.54612 37.3426 9.18229 37.1221 8.81845C36.7252 8.16796 36.3117 7.49542 35.9369 6.82288C35.6006 6.222 35.2533 5.77548 34.8454 5.41715C34.6359 5.23524 34.3878 5.13601 34.1397 5.13601C33.798 5.13601 33.4837 5.31793 33.2743 5.63766C32.9435 6.14482 32.8443 6.77326 32.9766 7.60016C33.1695 8.85153 33.4396 10.0588 33.6712 11.0731L33.7373 11.3763C33.9909 12.4623 34.25 13.5814 34.2279 14.7335C34.2004 16.0235 34.0846 16.5196 32.8498 16.9827C32.0505 17.2859 31.2621 17.6552 30.5014 18.0135L30.1762 18.1679C28.7539 18.8404 27.4584 19.8989 26.2291 21.4148C25.0384 22.8812 23.572 23.7577 21.8686 24.0168C20.744 24.1877 19.5974 24.32 18.4838 24.4413C17.9546 24.5019 17.4254 24.5571 16.8962 24.6232C15.8653 24.75 14.5313 24.965 13.2744 25.5604C12.7121 25.825 12.5357 26.1943 12.6735 26.7952C12.8168 27.4071 13.1917 27.9032 13.5004 28.2671C13.958 28.8128 14.2226 29.2814 14.3494 29.7941C14.3769 29.9043 14.399 30.0091 14.421 30.1193C14.4596 30.2847 14.4927 30.4446 14.5423 30.5989C15.1652 32.5394 16.4221 33.9285 18.2854 34.7224C19.2777 35.1468 20.3251 35.4831 21.3449 35.8139C21.7859 35.9517 22.2269 36.095 22.6624 36.2439C23.1971 36.4258 23.7319 36.6022 24.2666 36.7786C25.3085 37.1259 26.389 37.4842 27.4474 37.8646C31.9843 39.4963 35.7164 42.644 39.4925 45.5382C43.0647 48.2724 47.3205 50.3617 50.4682 53.6032C52.5134 55.709 54.8507 56.6131 56.703 58.8788C60.2752 63.2393 54.5531 51.4257 54.8948 48.9395C55.3634 45.5547 55.2532 42.0597 55.1484 38.6804L55.1264 38.0961L55.1539 38.1016Z" fill="url(#paint0_linear_1774_61439)"/>
<path d="M87.3975 34.2428V22.1756H91.8351C92.6676 22.1756 93.3787 22.2528 93.963 22.4071C94.5474 22.5615 95.027 22.782 95.3963 23.0631C95.7657 23.3443 96.0358 23.686 96.2012 24.0885C96.3665 24.4909 96.4547 24.9429 96.4547 25.4391C96.4547 25.7092 96.4161 25.9683 96.339 26.2219C96.2618 26.4754 96.1405 26.707 95.9751 26.9275C95.8098 27.148 95.5948 27.3464 95.3357 27.5284C95.0766 27.7103 94.7624 27.8646 94.3985 27.9969C95.1923 28.1899 95.7822 28.5041 96.1626 28.9396C96.5429 29.3751 96.7359 29.9319 96.7359 30.6099C96.7359 31.1226 96.6367 31.6022 96.4382 32.0432C96.2397 32.4842 95.9476 32.8701 95.5672 33.2009C95.1813 33.5316 94.7072 33.7852 94.1449 33.9726C93.5827 34.1546 92.9377 34.2483 92.2155 34.2483H87.3975V34.2428ZM90.1979 27.2527H91.6587C91.9674 27.2527 92.2486 27.2307 92.4967 27.1866C92.7447 27.1425 92.9542 27.0653 93.1306 26.955C93.3015 26.8448 93.4393 26.6904 93.5275 26.4975C93.6212 26.3045 93.6653 26.062 93.6653 25.7698C93.6653 25.4776 93.6268 25.2461 93.5551 25.0532C93.4834 24.8657 93.3732 24.7114 93.2243 24.5956C93.0755 24.4799 92.8881 24.3972 92.6565 24.3476C92.4305 24.2979 92.1549 24.2704 91.8407 24.2704H90.1979V27.2527ZM90.1979 29.127V32.1314H92.1714C92.5408 32.1314 92.844 32.0873 93.0755 31.9881C93.3125 31.8944 93.4944 31.7731 93.6268 31.6242C93.7591 31.4754 93.8528 31.3045 93.9024 31.1171C93.952 30.9297 93.974 30.7367 93.974 30.5438C93.974 30.3233 93.9465 30.1248 93.8858 29.9484C93.8252 29.772 93.726 29.6232 93.5882 29.5019C93.4448 29.3806 93.2629 29.2869 93.0314 29.2207C92.7999 29.1546 92.5077 29.1215 92.1549 29.1215H90.1979V29.127Z" fill="#181816"/>
<path d="M100.661 21.8448V34.2428H98.0977V21.8448H100.661Z" fill="#181816"/>
<path d="M108.411 34.2428C108.169 34.2428 107.987 34.2097 107.86 34.1435C107.733 34.0774 107.634 33.9396 107.551 33.7301L107.37 33.2615C107.155 33.4434 106.945 33.6033 106.747 33.7411C106.548 33.8789 106.344 33.9947 106.129 34.0939C105.914 34.1876 105.688 34.2593 105.451 34.3089C105.209 34.353 104.944 34.3806 104.652 34.3806C104.26 34.3806 103.902 34.331 103.582 34.2262C103.263 34.1215 102.993 33.9726 102.767 33.7742C102.54 33.5757 102.37 33.3277 102.248 33.03C102.127 32.7323 102.066 32.3905 102.066 32.0046C102.066 31.7014 102.144 31.3872 102.298 31.0675C102.452 30.7477 102.722 30.4556 103.103 30.191C103.483 29.9264 103.996 29.7058 104.641 29.5294C105.286 29.353 106.102 29.2648 107.083 29.2648V28.8955C107.083 28.3883 106.978 28.0245 106.774 27.7985C106.565 27.5725 106.273 27.4622 105.892 27.4622C105.589 27.4622 105.341 27.4953 105.148 27.5614C104.955 27.6276 104.784 27.7048 104.63 27.7874C104.475 27.8701 104.332 27.9473 104.189 28.008C104.045 28.0741 103.875 28.1072 103.676 28.1072C103.5 28.1072 103.351 28.0631 103.224 27.9804C103.097 27.8977 103.004 27.7874 102.932 27.6607L102.469 26.8558C102.987 26.3983 103.566 26.0565 104.194 25.836C104.823 25.61 105.506 25.4997 106.228 25.4997C106.747 25.4997 107.215 25.5824 107.634 25.7533C108.048 25.9187 108.406 26.1557 108.693 26.4589C108.985 26.7621 109.205 27.1204 109.36 27.5339C109.514 27.9473 109.591 28.3993 109.591 28.89V34.2593H108.417L108.411 34.2428ZM105.462 32.6772C105.793 32.6772 106.085 32.6165 106.333 32.5008C106.581 32.385 106.829 32.1976 107.088 31.9385V30.7643C106.576 30.7643 106.151 30.7973 105.821 30.8635C105.49 30.9297 105.225 31.0123 105.032 31.1171C104.839 31.2163 104.707 31.3321 104.63 31.4589C104.553 31.5857 104.52 31.7235 104.52 31.8778C104.52 32.1755 104.602 32.3795 104.762 32.5008C104.922 32.622 105.159 32.6772 105.468 32.6772H105.462Z" fill="#181816"/>
<path d="M117.359 27.6937C117.282 27.7874 117.21 27.8591 117.139 27.9198C117.067 27.9749 116.962 28.0024 116.83 28.0024C116.698 28.0024 116.587 27.9749 116.488 27.9142C116.383 27.8536 116.273 27.7874 116.146 27.7103C116.02 27.6331 115.871 27.5669 115.7 27.5063C115.529 27.4457 115.314 27.4126 115.06 27.4126C114.746 27.4126 114.476 27.4732 114.244 27.589C114.018 27.7048 113.825 27.8701 113.677 28.0851C113.528 28.3001 113.418 28.5647 113.346 28.879C113.274 29.1932 113.236 29.546 113.236 29.9374C113.236 30.7588 113.395 31.3927 113.71 31.8337C114.029 32.2747 114.465 32.4952 115.022 32.4952C115.319 32.4952 115.556 32.4567 115.733 32.385C115.904 32.3078 116.053 32.2251 116.174 32.1369C116.295 32.0487 116.405 31.9605 116.51 31.8833C116.609 31.8062 116.742 31.7676 116.896 31.7676C117.1 31.7676 117.254 31.8448 117.359 31.9936L118.103 32.9142C117.839 33.2174 117.558 33.4655 117.265 33.6584C116.973 33.8514 116.67 34.0002 116.367 34.1049C116.058 34.2097 115.755 34.2869 115.446 34.331C115.137 34.3695 114.834 34.3916 114.542 34.3916C114.018 34.3916 113.517 34.2924 113.037 34.0939C112.558 33.8955 112.139 33.6088 111.78 33.2284C111.416 32.8481 111.13 32.385 110.92 31.8337C110.705 31.2825 110.601 30.654 110.601 29.9484C110.601 29.331 110.694 28.7522 110.876 28.2119C111.064 27.6717 111.334 27.2086 111.698 26.8117C112.061 26.4148 112.508 26.1061 113.037 25.8801C113.572 25.6541 114.189 25.5383 114.889 25.5383C115.59 25.5383 116.152 25.6485 116.659 25.858C117.166 26.073 117.624 26.3872 118.037 26.8007L117.359 27.7048V27.6937Z" fill="#181816"/>
<path d="M121.531 21.8448V28.7963H121.912C122.072 28.7963 122.193 28.7742 122.281 28.7301C122.369 28.686 122.447 28.6033 122.524 28.4876L124.144 26.073C124.238 25.9297 124.348 25.8249 124.481 25.7588C124.613 25.6926 124.778 25.6596 124.971 25.6596H127.325L125.104 28.7136C124.999 28.8569 124.883 28.9837 124.762 29.0939C124.635 29.2042 124.503 29.3034 124.359 29.3916C124.607 29.5791 124.822 29.8271 125.004 30.1358L127.424 34.2428H125.104C124.911 34.2428 124.745 34.2097 124.602 34.149C124.459 34.0829 124.348 33.9726 124.255 33.8128L122.634 30.7753C122.557 30.6375 122.48 30.5493 122.397 30.5052C122.314 30.4666 122.187 30.4445 122.022 30.4445H121.526V34.2483H118.957V21.8503H121.526L121.531 21.8448Z" fill="#181816"/>
<path d="M142.149 28.2064C142.149 29.0774 142 29.8823 141.697 30.6209C141.393 31.3596 140.974 31.9936 140.429 32.5338C139.883 33.0741 139.221 33.493 138.455 33.7907C137.683 34.0939 136.829 34.2428 135.892 34.2428H131.206V22.1756H135.892C136.829 22.1756 137.683 22.3299 138.455 22.6276C139.227 22.9308 139.883 23.3498 140.429 23.8845C140.974 24.4192 141.399 25.0587 141.697 25.7919C141.994 26.5306 142.149 27.3299 142.149 28.1954V28.2064ZM139.282 28.2064C139.282 27.611 139.205 27.0708 139.051 26.5912C138.896 26.1116 138.676 25.7037 138.384 25.3674C138.091 25.0366 137.739 24.7775 137.32 24.6011C136.901 24.4192 136.421 24.331 135.886 24.331H134.012V32.0928H135.886C136.421 32.0928 136.901 32.0046 137.32 31.8227C137.739 31.6408 138.091 31.3872 138.384 31.0509C138.67 30.7147 138.896 30.3122 139.051 29.8326C139.205 29.353 139.282 28.8128 139.282 28.2064Z" fill="#181816"/>
<path d="M147.237 25.5218C147.887 25.5218 148.482 25.621 149.017 25.8249C149.552 26.0289 150.015 26.3211 150.395 26.7015C150.781 27.0818 151.079 27.5449 151.288 28.0851C151.498 28.6309 151.608 29.2428 151.608 29.9208C151.608 30.5989 151.503 31.2218 151.288 31.7731C151.073 32.3244 150.776 32.7874 150.395 33.1733C150.009 33.5592 149.552 33.8514 149.017 34.0608C148.482 34.2703 147.887 34.3695 147.237 34.3695C146.586 34.3695 145.98 34.2648 145.445 34.0608C144.905 33.8514 144.442 33.5592 144.056 33.1733C143.664 32.7874 143.367 32.3244 143.152 31.7731C142.937 31.2218 142.832 30.6099 142.832 29.9208C142.832 29.2318 142.937 28.6309 143.152 28.0851C143.367 27.5449 143.664 27.0818 144.056 26.7015C144.447 26.3211 144.91 26.0289 145.445 25.8249C145.985 25.621 146.581 25.5218 147.237 25.5218ZM147.237 32.4677C147.826 32.4677 148.262 32.2582 148.538 31.8392C148.819 31.4203 148.957 30.7863 148.957 29.9374C148.957 29.0884 148.819 28.4545 148.538 28.041C148.256 27.6276 147.826 27.4181 147.237 27.4181C146.647 27.4181 146.184 27.6276 145.903 28.041C145.621 28.4545 145.478 29.0884 145.478 29.9374C145.478 30.7863 145.621 31.4203 145.903 31.8392C146.184 32.2582 146.63 32.4677 147.237 32.4677Z" fill="#181816"/>
<path d="M155.964 25.5052C156.328 25.5052 156.67 25.5438 156.995 25.6155C157.32 25.6871 157.618 25.7919 157.894 25.9242H160.485V26.8613C160.485 27.0047 160.446 27.1149 160.363 27.1976C160.281 27.2803 160.148 27.3464 159.955 27.3905L159.327 27.5339C159.404 27.7819 159.443 28.041 159.443 28.3056C159.443 28.7356 159.354 29.1215 159.172 29.4633C158.996 29.8051 158.748 30.0972 158.434 30.3398C158.12 30.5824 157.756 30.7643 157.326 30.8966C156.901 31.0289 156.444 31.0895 155.959 31.0895C155.689 31.0895 155.435 31.073 155.198 31.0399C155.01 31.1502 154.917 31.277 154.917 31.4258C154.917 31.5746 154.994 31.6739 155.143 31.74C155.297 31.8062 155.496 31.8503 155.744 31.8723C155.992 31.8999 156.278 31.9109 156.598 31.9109C156.918 31.9109 157.243 31.9274 157.574 31.955C157.905 31.9826 158.23 32.0377 158.55 32.1094C158.869 32.181 159.156 32.2968 159.404 32.4567C159.652 32.6165 159.851 32.8315 160.005 33.1016C160.159 33.3718 160.231 33.7135 160.231 34.127C160.231 34.5129 160.137 34.8932 159.95 35.2626C159.762 35.6319 159.487 35.9627 159.123 36.2494C158.759 36.536 158.313 36.7675 157.783 36.9439C157.254 37.1204 156.648 37.2086 155.964 37.2086C155.281 37.2086 154.707 37.1424 154.222 37.0156C153.732 36.8888 153.329 36.7234 153.004 36.514C152.684 36.3045 152.442 36.0674 152.287 35.7973C152.133 35.5272 152.056 35.2405 152.056 34.9484C152.056 34.568 152.171 34.2483 152.403 33.9837C152.634 33.7191 152.954 33.5151 153.357 33.3662C153.164 33.2395 153.009 33.0796 152.894 32.8811C152.778 32.6827 152.723 32.4346 152.723 32.1314C152.723 32.0046 152.745 31.8723 152.789 31.729C152.833 31.5857 152.905 31.4534 152.998 31.3211C153.092 31.1887 153.213 31.062 153.357 30.9407C153.5 30.8194 153.671 30.7147 153.869 30.6209C153.423 30.3839 153.07 30.0697 152.816 29.6783C152.557 29.2869 152.431 28.8293 152.431 28.3112C152.431 27.8812 152.524 27.4953 152.706 27.148C152.888 26.8007 153.136 26.5085 153.456 26.266C153.77 26.0289 154.145 25.8415 154.575 25.7092C155.005 25.5824 155.474 25.5162 155.975 25.5162L155.964 25.5052ZM157.872 34.5404C157.872 34.3971 157.827 34.2869 157.745 34.1987C157.657 34.116 157.541 34.0498 157.397 33.9947C157.249 33.9451 157.078 33.9065 156.885 33.8844C156.686 33.8624 156.477 33.8514 156.251 33.8514H155.545C155.303 33.8514 155.06 33.8293 154.823 33.7797C154.663 33.8899 154.531 34.0112 154.432 34.149C154.327 34.2869 154.277 34.4412 154.277 34.6121C154.277 34.7334 154.305 34.8436 154.354 34.9429C154.41 35.0421 154.498 35.1303 154.63 35.202C154.762 35.2736 154.939 35.3287 155.165 35.3728C155.391 35.4114 155.672 35.4335 156.014 35.4335C156.383 35.4335 156.686 35.4114 156.923 35.3673C157.16 35.3232 157.353 35.2571 157.491 35.1799C157.634 35.1027 157.734 35.009 157.783 34.8988C157.838 34.7885 157.866 34.6672 157.866 34.5404H157.872ZM155.964 29.4964C156.389 29.4964 156.697 29.3916 156.885 29.1766C157.078 28.9616 157.171 28.6915 157.171 28.3553C157.171 28.019 157.078 27.7323 156.885 27.5339C156.697 27.3354 156.389 27.2362 155.964 27.2362C155.54 27.2362 155.231 27.3354 155.038 27.5339C154.851 27.7323 154.751 28.008 154.751 28.3553C154.751 28.5206 154.773 28.6695 154.823 28.8128C154.867 28.9506 154.944 29.0719 155.044 29.1711C155.143 29.2759 155.27 29.353 155.418 29.4137C155.573 29.4743 155.749 29.5019 155.964 29.5019V29.4964Z" fill="#181816"/>
<path d="M88.8913 51.7178H87.3809V39.8491H88.8913V51.7178Z" fill="#181816"/>
<path d="M91.2783 51.7289V43.3386H92.1548C92.3643 43.3386 92.4966 43.4434 92.5517 43.6473L92.6675 44.5569C93.0313 44.1545 93.4393 43.8292 93.8913 43.5812C94.3434 43.3331 94.8615 43.2063 95.4514 43.2063C95.9089 43.2063 96.3114 43.2835 96.6642 43.4323C97.017 43.5812 97.3092 43.8017 97.5407 44.0773C97.7777 44.3585 97.9541 44.6947 98.0754 45.0861C98.1967 45.4775 98.2573 45.913 98.2573 46.3871V51.7289H96.7855V46.3871C96.7855 45.7532 96.6421 45.2625 96.35 44.9097C96.0633 44.5624 95.6168 44.386 95.0214 44.386C94.5859 44.386 94.178 44.4908 93.8031 44.7002C93.4227 44.9097 93.0754 45.1964 92.7557 45.5547V51.7344H91.2838L91.2783 51.7289Z" fill="#181816"/>
<path d="M105.044 44.7223C104.978 44.8436 104.873 44.9042 104.74 44.9042C104.658 44.9042 104.564 44.8711 104.459 44.8105C104.355 44.7499 104.228 44.6837 104.073 44.6065C103.919 44.5294 103.743 44.4632 103.528 44.397C103.318 44.3364 103.07 44.3033 102.783 44.3033C102.535 44.3033 102.309 44.3364 102.111 44.397C101.912 44.4577 101.742 44.5459 101.604 44.6561C101.46 44.7664 101.356 44.8987 101.279 45.042C101.201 45.1909 101.168 45.3452 101.168 45.5161C101.168 45.7311 101.229 45.913 101.356 46.0564C101.483 46.1997 101.642 46.3265 101.846 46.4312C102.05 46.536 102.282 46.6297 102.541 46.7068C102.8 46.7895 103.065 46.8722 103.34 46.9659C103.61 47.0541 103.881 47.1589 104.14 47.2691C104.399 47.3794 104.63 47.5172 104.834 47.6826C105.038 47.848 105.204 48.0519 105.33 48.2945C105.452 48.5315 105.518 48.8237 105.518 49.16C105.518 49.5459 105.452 49.9042 105.314 50.2349C105.176 50.5657 104.972 50.8468 104.702 51.0894C104.432 51.3264 104.101 51.5194 103.71 51.6572C103.318 51.795 102.866 51.8667 102.353 51.8667C101.769 51.8667 101.24 51.773 100.766 51.58C100.292 51.3871 99.8894 51.1445 99.5586 50.8468L99.9059 50.2846C99.95 50.2129 100.005 50.1578 100.066 50.1192C100.126 50.0806 100.204 50.064 100.308 50.064C100.413 50.064 100.512 50.1026 100.623 50.1798C100.733 50.257 100.865 50.3397 101.025 50.4389C101.179 50.5326 101.372 50.6153 101.598 50.6925C101.824 50.7697 102.1 50.8083 102.436 50.8083C102.723 50.8083 102.976 50.7697 103.191 50.698C103.406 50.6208 103.583 50.5216 103.732 50.3948C103.875 50.268 103.98 50.1247 104.051 49.9593C104.123 49.7939 104.156 49.6175 104.156 49.4301C104.156 49.1986 104.095 49.0056 103.969 48.8568C103.842 48.7024 103.682 48.5756 103.473 48.4654C103.269 48.3606 103.037 48.2614 102.772 48.1842C102.508 48.1015 102.243 48.0189 101.968 47.9307C101.692 47.8425 101.427 47.7432 101.163 47.6275C100.898 47.5172 100.667 47.3739 100.463 47.203C100.259 47.0321 100.093 46.8226 99.972 46.569C99.8453 46.3154 99.7846 46.0123 99.7846 45.6539C99.7846 45.3342 99.8508 45.0255 99.9831 44.7278C100.115 44.4301 100.308 44.171 100.562 43.9505C100.815 43.7245 101.13 43.5481 101.499 43.4158C101.868 43.2835 102.293 43.2173 102.767 43.2173C103.318 43.2173 103.814 43.3055 104.255 43.4764C104.696 43.6528 105.071 43.8899 105.391 44.1931L105.06 44.7333L105.044 44.7223Z" fill="#181816"/>
<path d="M109.724 51.8612C109.062 51.8612 108.549 51.6737 108.197 51.3044C107.838 50.935 107.662 50.4003 107.662 49.7057V44.5734H106.653C106.565 44.5734 106.488 44.5459 106.433 44.4963C106.372 44.4411 106.339 44.364 106.339 44.2537V43.6639L107.712 43.4875L108.053 40.8965C108.064 40.8138 108.097 40.7477 108.164 40.6925C108.224 40.6374 108.301 40.6154 108.395 40.6154H109.139V43.504H111.543V44.5734H109.139V49.6065C109.139 49.9593 109.222 50.2239 109.393 50.3948C109.564 50.5657 109.784 50.6484 110.054 50.6484C110.209 50.6484 110.347 50.6263 110.457 50.5877C110.573 50.5436 110.666 50.4995 110.754 50.4499C110.837 50.4003 110.909 50.3562 110.964 50.3121L111.118 50.2515C111.196 50.2515 111.267 50.3011 111.328 50.3948L111.758 51.1004C111.504 51.3375 111.196 51.5249 110.837 51.6627C110.479 51.8005 110.11 51.8667 109.729 51.8667L109.724 51.8612Z" fill="#181816"/>
<path d="M115.077 40.7036C115.077 40.8469 115.049 40.9792 114.988 41.106C114.928 41.2328 114.856 41.343 114.757 41.4368C114.658 41.536 114.547 41.6076 114.421 41.6628C114.294 41.7179 114.156 41.7455 114.013 41.7455C113.869 41.7455 113.737 41.7179 113.61 41.6628C113.483 41.6076 113.373 41.5305 113.279 41.4368C113.18 41.343 113.109 41.2328 113.053 41.106C112.998 40.9792 112.971 40.8469 112.971 40.7036C112.971 40.5602 112.998 40.4224 113.053 40.2956C113.109 40.1633 113.186 40.0531 113.279 39.9538C113.379 39.8546 113.489 39.783 113.61 39.7278C113.737 39.6727 113.869 39.6451 114.013 39.6451C114.156 39.6451 114.294 39.6727 114.421 39.7278C114.547 39.783 114.658 39.8601 114.757 39.9538C114.856 40.0476 114.928 40.1633 114.988 40.2956C115.049 40.4279 115.077 40.5602 115.077 40.7036ZM114.746 43.3386V51.7289H113.274V43.3386H114.746Z" fill="#181816"/>
<path d="M119.641 51.8612C118.979 51.8612 118.466 51.6737 118.114 51.3044C117.761 50.935 117.579 50.4003 117.579 49.7057V44.5734H116.57C116.482 44.5734 116.405 44.5459 116.344 44.4963C116.283 44.4411 116.256 44.364 116.256 44.2537V43.6639L117.629 43.4875L117.97 40.8965C117.981 40.8138 118.02 40.7477 118.081 40.6925C118.141 40.6374 118.218 40.6154 118.312 40.6154H119.056V43.504H121.46V44.5734H119.056V49.6065C119.056 49.9593 119.139 50.2239 119.315 50.3948C119.486 50.5657 119.707 50.6484 119.977 50.6484C120.131 50.6484 120.264 50.6263 120.379 50.5877C120.495 50.5436 120.589 50.4995 120.677 50.4499C120.76 50.4003 120.831 50.3562 120.886 50.3121L121.041 50.2515C121.118 50.2515 121.19 50.3011 121.25 50.3948L121.68 51.1004C121.427 51.3375 121.118 51.5249 120.76 51.6627C120.401 51.8005 120.032 51.8667 119.652 51.8667L119.641 51.8612Z" fill="#181816"/>
<path d="M124.304 43.3386V48.6859C124.304 49.3198 124.447 49.8105 124.739 50.1578C125.032 50.5051 125.473 50.6815 126.062 50.6815C126.492 50.6815 126.9 50.5767 127.281 50.3783C127.661 50.1743 128.014 49.8876 128.334 49.5238V43.3386H129.806V51.7289H128.929C128.72 51.7289 128.587 51.6241 128.532 51.4202L128.416 50.5161C128.052 50.9185 127.645 51.2438 127.193 51.4918C126.74 51.7399 126.222 51.8612 125.638 51.8612C125.18 51.8612 124.772 51.784 124.425 51.6352C124.072 51.4808 123.78 51.2713 123.543 50.9957C123.306 50.7201 123.13 50.3838 123.008 49.9924C122.893 49.601 122.832 49.1655 122.832 48.6914V43.3441H124.309L124.304 43.3386Z" fill="#181816"/>
<path d="M134.53 51.8612C133.869 51.8612 133.356 51.6737 133.003 51.3044C132.65 50.935 132.469 50.4003 132.469 49.7057V44.5734H131.46C131.372 44.5734 131.294 44.5459 131.234 44.4963C131.173 44.4411 131.146 44.364 131.146 44.2537V43.6639L132.518 43.4875L132.86 40.8965C132.871 40.8138 132.91 40.7477 132.97 40.6925C133.031 40.6374 133.108 40.6154 133.202 40.6154H133.946V43.504H136.349V44.5734H133.946V49.6065C133.946 49.9593 134.029 50.2239 134.2 50.3948C134.37 50.5657 134.591 50.6484 134.861 50.6484C135.015 50.6484 135.148 50.6263 135.263 50.5877C135.379 50.5436 135.473 50.4995 135.561 50.4499C135.644 50.4003 135.715 50.3562 135.771 50.3121L135.925 50.2515C136.002 50.2515 136.074 50.3011 136.134 50.3948L136.564 51.1004C136.311 51.3375 136.002 51.5249 135.644 51.6627C135.286 51.8005 134.916 51.8667 134.536 51.8667L134.53 51.8612Z" fill="#181816"/>
<path d="M141.239 43.2063C141.741 43.2063 142.204 43.289 142.628 43.4599C143.053 43.6308 143.422 43.8733 143.731 44.1876C144.04 44.5073 144.282 44.8987 144.458 45.3618C144.629 45.8303 144.718 46.3595 144.718 46.9549C144.718 47.1864 144.696 47.3408 144.646 47.418C144.596 47.4952 144.503 47.5337 144.365 47.5337H138.78C138.791 48.063 138.863 48.526 138.995 48.9174C139.128 49.3088 139.31 49.6341 139.541 49.8987C139.773 50.1633 140.048 50.3562 140.368 50.4885C140.688 50.6208 141.046 50.6815 141.443 50.6815C141.812 50.6815 142.132 50.6374 142.397 50.5547C142.667 50.4665 142.893 50.3783 143.086 50.279C143.279 50.1798 143.439 50.0916 143.571 50.0034C143.698 49.9207 143.814 49.8766 143.907 49.8766C144.028 49.8766 144.122 49.9262 144.188 50.0199L144.602 50.5602C144.42 50.7807 144.205 50.9736 143.946 51.1335C143.692 51.2934 143.422 51.4312 143.13 51.5359C142.838 51.6407 142.54 51.7178 142.231 51.773C141.923 51.8281 141.614 51.8501 141.311 51.8501C140.732 51.8501 140.197 51.7564 139.707 51.558C139.216 51.365 138.797 51.0729 138.439 50.698C138.08 50.3231 137.805 49.8546 137.606 49.2923C137.408 48.7355 137.309 48.096 137.309 47.3684C137.309 46.784 137.397 46.2383 137.579 45.7311C137.755 45.2239 138.014 44.7829 138.35 44.4081C138.687 44.0332 139.1 43.741 139.585 43.5316C140.07 43.3166 140.616 43.2118 141.228 43.2118L141.239 43.2063ZM141.272 44.2923C140.561 44.2923 139.999 44.4963 139.591 44.9097C139.183 45.3232 138.929 45.891 138.83 46.6242H143.395C143.395 46.2824 143.345 45.9681 143.251 45.6815C143.157 45.3948 143.02 45.1523 142.838 44.9428C142.656 44.7333 142.435 44.5734 142.171 44.4632C141.906 44.3474 141.608 44.2923 141.272 44.2923Z" fill="#181816"/>
<path fill-rule="evenodd" clip-rule="evenodd" d="M61.5875 60.4995C60.9811 60.4995 60.3692 60.4664 59.7573 60.4444C58.7651 60.4058 57.7397 60.3121 56.8081 59.9262C56.2844 59.7112 55.7827 59.3584 55.3968 58.9394C54.7243 58.2117 54.162 57.3848 53.5115 56.6406C53.0374 56.1004 52.4972 55.6208 51.9845 55.1191C51.4884 54.634 50.9867 54.1544 50.4961 53.6693C50.3142 53.4874 50.1653 53.2669 49.9669 53.096C49.2116 52.451 48.7541 51.6021 48.4233 50.698C47.5744 48.4103 46.8081 46.0949 45.9261 43.8237C45.4355 42.5669 44.7905 41.3706 44.2007 40.1523C43.8644 39.4687 43.7872 38.7742 43.903 38.0134C44.0904 36.8227 44.4377 35.6981 45.0827 34.6727C45.4631 34.0719 45.9316 33.6198 46.6097 33.3222C47.8996 32.7488 48.7872 31.729 49.377 30.4611C50.011 29.0884 51.1962 27.8481 52.6681 27.3905C53.0429 27.2748 53.4288 27.2031 53.8257 27.1756C54.0903 27.159 54.3053 27.1756 54.4156 26.8889C54.7684 25.9793 54.8345 25.0477 54.7629 24.0719C54.6416 22.3299 54.0573 20.7092 53.6328 19.0389C53.4674 18.3994 53.3627 17.7324 53.3186 17.0709C53.2524 16.0566 53.291 15.0312 53.2304 14.0169C53.1918 13.3774 53.0705 12.7435 52.9658 12.104C52.8224 11.2165 52.6571 10.3344 52.5303 9.44689C52.3704 8.33885 52.0451 7.25837 51.6537 6.222C51.2293 5.11396 50.8103 4.02245 50.8324 2.80967C50.8489 1.81739 51.3616 1.16139 52.3483 1.02909C53.3241 0.896783 54.4983 1.00152 55.2921 1.63548C56.5324 2.62224 57.0837 4.36424 57.5192 5.8306C57.6515 6.27712 57.7673 6.72365 57.872 7.1812C58.2248 8.7523 58.5556 10.3289 58.8478 11.911C59.0462 12.9915 59.1344 14.0941 59.3274 15.1745C59.5313 16.3212 59.829 17.4457 60.0495 18.5869C60.2204 19.4689 60.3748 20.3509 60.4795 21.244C60.5512 21.8834 60.5071 22.5394 60.5567 23.1899C60.6228 24.0389 60.6779 24.8933 61.2072 25.632C62.0065 26.7456 63.5721 26.8227 64.3549 25.7147C65.1156 24.6342 65.8984 23.5593 66.4221 22.3299C66.8907 21.2329 67.3813 20.1469 67.8334 19.0389C68.4287 17.5836 69.1454 16.1944 69.9557 14.8438C70.8212 13.3995 71.6702 11.9386 72.1167 10.2903C72.3813 9.32561 72.6294 8.35539 72.9601 7.41273C73.3295 6.37084 73.8587 5.42266 74.8399 4.79973C75.744 4.23193 76.8576 4.43039 77.5907 5.02024C78.357 5.63214 78.6216 6.50865 78.7429 7.42375C78.8201 7.9695 78.8311 8.52628 78.8145 9.07755C78.7429 10.8857 78.4342 12.6442 77.712 14.3201C76.9899 16.0069 76.2732 17.6993 75.6007 19.4027C75.2148 20.384 74.9722 21.4204 74.5919 22.4071C74.1839 23.46 73.6768 24.4744 73.2468 25.5218C72.6514 26.9716 72.0671 28.4214 71.5268 29.8933C70.4629 32.8095 71.367 37.0101 71.0197 40.1082C70.5731 44.0057 68.1586 50.2405 69.8455 53.9615C70.1321 54.5899 70.4133 55.2625 70.3802 55.9681C70.3526 56.6902 69.9006 57.2911 69.4596 57.8258C68.9855 58.3937 68.3846 58.8457 67.7452 59.204C66.4221 59.9482 64.9006 60.2845 63.4012 60.4278C62.8003 60.4829 62.1994 60.4995 61.5931 60.494L61.5875 60.4995Z" fill="#F69C06"/>
<path d="M58.6379 36.5085C58.897 37.192 59.0127 37.9583 59.4152 38.5812C59.7569 39.1159 60.3799 39.3861 60.8925 39.7278C61.102 39.8712 61.328 40.009 61.5155 40.1799C61.6257 40.2846 62.0006 40.7642 62.177 40.6485C62.3093 40.5603 62.2211 40.2681 62.2376 40.1413C62.3093 39.4963 62.7117 38.912 63.1141 38.4158C63.2299 38.2725 63.3512 38.1292 63.4725 37.9914C63.8694 37.5393 64.3765 36.9991 64.3765 36.9991C65.6665 35.6154 65.9421 34.0443 65.9421 34.0443C65.9697 33.8844 66.0138 33.3607 65.7382 33.6694C65.3909 34.0664 65.1759 34.5845 64.8286 34.998C64.5695 35.3012 64.2883 35.5823 64.0017 35.8525C63.6985 36.1336 63.3016 36.5691 62.855 36.5691C62.4747 36.5691 62.3148 36.2273 62.4306 35.891C62.4967 35.6926 62.3865 35.4776 62.2652 35.3288C61.7801 34.7113 60.9697 34.6452 60.2972 34.353C60.0546 34.2483 59.768 34.116 59.6136 33.89C59.4427 33.6198 59.5254 33.2836 59.6136 33.0024C59.6357 32.9197 59.8286 32.4512 59.6301 32.4567C59.3821 32.4677 59.1285 32.9859 59.0458 33.1843C58.9025 33.5427 58.8639 33.9561 58.5883 34.2428C58.4449 34.3861 58.2465 34.4743 58.1748 34.6838C58.1031 34.8877 58.1472 35.1138 58.2134 35.3177C58.3402 35.7257 58.489 36.1336 58.6434 36.5305L58.6379 36.5085ZM55.7603 39.0718C55.6666 39.0333 55.5728 39.0002 55.4736 38.9671C55.3964 38.945 54.994 38.7907 55.0547 38.9781C55.1208 39.1821 55.4405 39.2813 55.6059 39.3805C56.1572 39.7113 56.6754 40.1027 57.1329 40.5547C57.3975 40.8138 57.6787 41.1666 57.5574 41.5636C57.4692 41.8557 57.4637 42.0432 57.5464 42.1534C57.5905 42.214 57.6621 42.2526 57.7448 42.2526C58.0039 42.2526 58.048 41.988 58.1031 41.7841C58.2189 41.3596 58.2134 40.9627 57.9598 40.5878C57.6952 40.1909 57.2928 39.8712 56.8849 39.6231C56.6533 39.4798 56.4052 39.364 56.1627 39.2482C56.0304 39.1876 55.8981 39.1215 55.7603 39.0663V39.0718ZM51.2179 5.05332C51.262 5.19113 51.3116 5.32895 51.3612 5.46676C51.4494 5.72035 51.5486 5.97393 51.6478 6.22751C52.0448 7.26389 52.3645 8.34436 52.5243 9.45241C52.6511 10.3399 52.822 11.222 52.9598 12.1095C53.0646 12.7435 53.1859 13.3774 53.2245 14.0224C53.2851 15.0367 53.2465 16.0621 53.3127 17.0764C53.3568 17.7379 53.4615 18.4049 53.6269 19.0444C54.0514 20.7092 54.6302 22.3355 54.757 24.0774C54.8231 25.0532 54.757 25.9793 54.4097 26.8944C54.3601 27.0267 54.2939 27.0984 54.1947 27.1425C54.6577 27.1866 55.1043 27.3685 55.4185 27.7158C55.6776 28.0024 56.0194 29.0058 56.532 28.7411C57.0447 28.471 56.8518 27.815 56.6092 27.3409C55.7823 25.7202 55.4846 23.7853 55.3358 22.0047C55.0657 18.9121 55.2035 15.8085 54.9279 12.7159C54.8507 11.8228 54.7129 10.9298 54.4979 10.0588C53.9852 8.01361 53.0866 6.34328 52.0006 4.57372C51.7471 4.16027 51.5651 3.69169 51.4604 3.21761C51.3612 2.77659 51.295 2.29699 51.4053 1.85047C51.4549 1.6465 51.5541 1.45907 51.6534 1.27716C51.6534 1.27716 51.2289 1.42048 51.0249 1.81739C50.9422 1.97726 50.8761 2.13713 50.8485 2.31353C50.8209 2.47891 50.8099 2.65532 50.8099 2.82621C50.8099 3.06876 50.832 3.30581 50.865 3.53734C50.9367 4.05553 51.069 4.56269 51.2289 5.05332H51.2179ZM74.8285 4.81076C73.8528 5.42818 73.318 6.38186 72.9487 7.42375C72.6179 8.36642 72.3644 9.33664 72.1053 10.3014C71.6587 11.9496 70.8098 13.405 69.9443 14.8548C69.1339 16.1999 68.4173 17.5946 67.8219 19.0499C67.3699 20.158 66.8793 21.244 66.4107 22.341C65.8815 23.5703 65.1042 24.6453 64.3435 25.7257C64.0678 26.1171 63.6489 26.4038 63.1748 26.4865C64.6301 26.8062 66.6863 23.7136 66.6863 23.7136C66.9234 23.3608 67.1659 23.0135 67.414 22.6717C67.8219 22.1039 68.2133 21.5251 68.5992 20.9408C68.9741 20.3674 69.3379 19.7831 69.6797 19.1877C71.4878 16.0125 73.4448 11.8339 73.9465 7.749C74.2331 5.41715 74.9884 4.81076 75.0821 4.68948C74.9994 4.72807 74.9112 4.76666 74.8285 4.81627V4.81076ZM63.1858 52.9582C62.8991 52.7928 62.6015 52.5888 62.3589 52.3628C62.2597 52.2691 62.199 52.1809 62.1329 52.0651C61.7194 51.3154 60.6279 50.9957 60.6279 50.9957C60.0601 50.8083 59.5144 50.5712 59.0017 50.268C58.7095 50.0916 58.3898 49.9317 58.1417 49.6892C57.8441 49.397 57.8441 49.0993 57.7614 48.7135C57.6842 48.3441 57.5574 47.9803 57.2873 47.7046C56.8904 47.3022 56.4824 47.0211 56.3722 46.4312C56.2619 45.8469 56.1903 45.2295 56.1903 44.6396C56.1903 44.4853 56.1682 44.2923 56.0745 44.1655C55.9312 43.9616 55.6831 44.2537 55.6004 44.3805C55.5232 44.5018 55.4736 44.6341 55.4075 44.7609C55.3634 44.8436 55.3248 44.9208 55.2917 45.0034C55.1208 45.3948 54.8783 45.5988 54.4648 45.4445C54.134 45.3232 53.8639 45.1082 53.5828 44.9097C53.3347 44.7278 53.0977 44.5404 52.9157 44.2923C52.7173 44.0277 52.5299 43.7796 52.2212 43.6418C51.918 43.5095 51.725 43.4985 51.4825 43.2449C51.262 43.0079 51.1627 42.3188 51.4053 42.0266C50.9973 42.1975 50.6115 42.9417 50.5894 43.3607C50.2256 42.3905 50.4406 41.332 50.9753 40.4665C51.3116 39.9208 51.703 39.4026 52.1826 38.9671C52.4692 38.708 52.8275 38.5537 53.1087 38.289C53.3127 38.1016 53.4119 37.826 53.3347 37.5504C52.9433 36.1722 51.7195 35.1193 51.5872 33.6474C51.5431 33.1898 51.6644 32.7654 51.7471 32.3189C51.8353 31.8503 51.2509 31.944 51.0084 32.0818C50.628 32.3078 50.3634 32.7433 50.1649 33.1292C49.8066 33.8403 49.6964 34.8216 49.6412 35.6154C49.6302 35.7753 49.6247 35.9351 49.6192 36.0895C49.5971 36.6628 49.735 37.8039 48.8805 37.815C48.5387 37.815 48.2906 37.5504 48.0481 37.3519C47.7063 37.0708 47.3094 36.8061 46.9235 37.1755C46.6534 37.4346 46.5431 37.848 46.2565 38.0796C45.832 38.4213 45.38 37.9362 44.9775 37.8315C44.6137 37.7323 44.2499 37.815 44.0845 38.1843C43.9577 38.4599 43.9356 38.7797 43.9577 39.0774C43.9853 39.3695 44.0128 39.6727 44.1065 39.9539C44.1892 40.1964 44.3215 40.4224 44.4373 40.6485C44.5641 40.902 44.6909 41.1556 44.8177 41.4037C45.0713 41.9108 45.3193 42.418 45.5509 42.9362C45.6776 43.2229 45.7989 43.5095 45.9147 43.8017C46.7967 46.0729 47.563 48.3882 48.4119 50.676C48.682 51.4091 49.0404 52.1092 49.5641 52.6936C50.8099 54.0662 52.2818 55.2239 53.5001 56.6186C54.1506 57.3628 54.7184 58.1897 55.3854 58.9174C55.7713 59.3363 56.2729 59.6891 56.7966 59.9041C57.7283 60.29 58.7481 60.3837 59.7459 60.4223C59.8396 60.4223 59.9389 60.4278 60.0326 60.4333C60.0546 60.4333 60.0712 60.4333 60.0712 60.4333C59.6908 60.0033 59.338 59.5458 58.9907 59.0882C58.4835 58.4267 58.0149 57.7321 57.596 57.01C57.2928 56.4863 56.9896 55.8909 56.951 55.2735C56.9455 55.1743 56.951 55.0806 56.962 54.9979C57.0557 54.4025 57.585 54.1048 58.2079 54.0607C58.5221 54.0387 58.9135 54.0332 59.2167 54.1103C59.4978 54.182 59.7514 54.2923 59.9664 54.4135C60.22 54.5513 60.4515 54.7277 60.6665 54.9207C60.854 55.0861 61.0745 55.3011 61.3336 55.3452C61.5871 55.3948 61.8076 55.1963 61.9124 54.9924C62.0061 54.816 62.0723 54.6285 62.1053 54.4301C62.1108 54.3915 62.1219 54.3474 62.1274 54.3088C62.2431 53.1511 62.8109 53.4929 62.8109 53.4929C64.0789 54.3033 65.6334 54.0497 66.8021 53.2007C66.9179 53.1181 67.0281 53.0299 67.1273 52.9306C67.0502 53.0078 66.8462 53.0519 66.7415 53.096C65.6003 53.5591 64.2663 53.5756 63.1803 52.9472L63.1858 52.9582ZM51.3667 49.0387C50.8761 49.2372 50.4736 47.9527 50.4736 47.9527C50.3138 47.4455 49.7515 47.0927 49.7515 47.0927C48.4946 46.0674 48.3237 44.5955 48.3237 44.5955C48.1694 43.8734 47.6622 43.2615 47.6622 43.2615C47.0834 42.7488 47.4417 42.4125 47.4417 42.4125C47.7614 42.1038 48.015 42.4952 48.1859 42.7322C48.4119 43.052 48.671 43.3552 48.8805 43.6914C49.3325 44.4136 49.7405 45.1909 50.0547 45.9847C50.1705 46.2824 50.2642 46.5856 50.3634 46.8888C50.5453 47.4621 50.9643 47.9858 50.9643 47.9858C51.714 48.752 51.3612 49.0387 51.3612 49.0387H51.3667Z" fill="#E1460F"/>
<defs>
<linearGradient id="paint0_linear_1774_61439" x1="12.6625" y1="30.9848" x2="61.725" y2="30.9848" gradientUnits="userSpaceOnUse">
<stop stop-color="#B8B0AA"/>
<stop offset="0.15" stop-color="#B4ACA5"/>
<stop offset="0.31" stop-color="#A8A099"/>
<stop offset="0.46" stop-color="#958C84"/>
<stop offset="0.62" stop-color="#7B7167"/>
<stop offset="0.78" stop-color="#594E42"/>
<stop offset="0.89" stop-color="#3E3225"/>
</linearGradient>
</defs>
</svg>
